HIERARCHY
ROOT Hip
{
	OFFSET 0 0 0
	CHANNELS 6 Xposition Yposition Zposition Zrotation Yrotation Xrotation
	JOINT ShoulderCenter
	{
		OFFSET 0 0.4363 0
		CHANNELS 3 Zrotation Yrotation Xrotation
		JOINT Head
		{
			OFFSET 0 0.1849 0
			CHANNELS 3 Zrotation Yrotation Xrotation
			End Site
			{
				OFFSET 0.0 0.0891 0.0
			}
		}
		JOINT ShoulderLeft
		{
			OFFSET -0.14 0 0
			CHANNELS 3 Zrotation Yrotation Xrotation
			JOINT ElbowLeft
			{
				OFFSET -0.25 0 0
				CHANNELS 3 Zrotation Yrotation Xrotation
				JOINT WristLeft
				{
					OFFSET -0.23 0 0
					CHANNELS 3 Zrotation Yrotation Xrotation
					End Site
					{
						OFFSET -0.0832 0.0 0.0
					}
				}
			}
		}
		JOINT ShoulderRight
		{
			OFFSET 0.14 0 0
			CHANNELS 3 Zrotation Yrotation Xrotation
			JOINT ElbowRight
			{
				OFFSET 0.25 0 0
				CHANNELS 3 Zrotation Yrotation Xrotation
				JOINT WristRight
				{
					OFFSET 0.23 0 0
					CHANNELS 3 Zrotation Yrotation Xrotation
					End Site
					{
						OFFSET 0.0832 0.0 0.0
					}
				}
			}
		}
	}
	JOINT HipLeft
	{
		OFFSET -0.0952 0 0
		CHANNELS 3 Zrotation Yrotation Xrotation
		JOINT KneeLeft
		{
			OFFSET 0 -0.3732 0
			CHANNELS 3 Zrotation Yrotation Xrotation
			JOINT AnkleLeft
			{
				OFFSET 0 -0.346 0
				CHANNELS 3 Zrotation Yrotation Xrotation
				End Site
				{
					OFFSET 0.0 0.0 0.0891
				}
			}
		}
	}
	JOINT HipRight
	{
		OFFSET 0.0952 0 0
		CHANNELS 3 Zrotation Yrotation Xrotation
		JOINT KneeRight
		{
			OFFSET 0 -0.3732 0
			CHANNELS 3 Zrotation Yrotation Xrotation
			JOINT AnkleRight
			{
				OFFSET 0 -0.346 0
				CHANNELS 3 Zrotation Yrotation Xrotation
				End Site
				{
					OFFSET 0.0 0.0 0.0891
				}
			}
		}
	}
}
MOTION
Frames: 27
Frame Time: 0.033333
0.257302 0.461409 -2.2809 -9.81006 -50.2525 8.64512 29.5979 13.1027 157.167 0 0 0 -23.519 32.7996 -101.151 -9.50885e-06 51.3918 -6.4704e-06 0 0 0 100.869 -23.8656 -116.11 1.84044 -14.0915 -0.130565 0 0 0 29.7267 6.36885 15.1233 -32.8434 5.66727 -35.2812 0 0 0 10.7821 5.10322 -28.9256 5.68664 -4.87998 15.0926 0 0 0 
0.255181 0.448106 -2.2809 -8.87881 -51.4245 6.70212 29.3815 13.9481 158.273 0 0 0 -23.5596 33.7719 -102.747 1.61423e-06 52.1583 2.69118e-06 0 0 0 99.467 -22.9353 -115.148 0.498337 -15.0125 -0.319398 0 0 0 27.0391 1.8526 17.0174 -27.5863 7.11159 -38.0336 0 0 0 9.81114 3.4369 -27.9149 6.60951 -5.16411 17.3901 -4.26887e-07 -5.33608e-08 8.53774e-07 
0.257152 0.448106 -2.28098 -8.43508 -51.5656 6.61672 29.1659 14.0607 157.805 0 0 0 -22.2509 30.5597 -95.2039 7.54061e-06 54.1351 1.93576e-06 0 0 0 99.6161 -23.2222 -115.36 2.29558 -14.435 -0.756009 0 0 0 24.8929 -0.862633 16.2602 -22.3118 8.46664 -37.8698 0 0 0 9.60668 3.39901 -28.1492 6.59804 -5.13483 17.4724 0 0 0 
0.257152 0.447914 -2.28133 -7.58433 -51.6138 5.0347 28.9718 13.5664 158.234 0 0 0 -24.7325 35.1378 -107.066 4.72891e-06 52.6374 2.33909e-06 0 0 0 100.002 -23.2331 -115.624 2.07309 -14.2658 -0.75986 0 0 0 22.0363 -3.36933 16.2941 -16.2971 9.62752 -36.3029 0 0 0 9.24198 3.37381 -27.3274 6.58453 -5.19704 17.4453 0 0 0 
0.256197 0.448106 -2.2882 -6.97495 -50.2242 4.04555 28.1273 13.8979 157.401 0 0 0 -22.809 32.0466 -95.8933 2.02636e-05 55.0118 1.05512e-05 0 0 0 98.8831 -23.367 -113.461 3.23151 -13.9435 -1.21967 0 0 0 20.539 -4.14259 14.9796 -11.836 9.69435 -32.8987 0 0 0 10.1865 4.54405 -26.577 4.35462 -4.78811 16.5744 0 0 0 
0.254948 0.448451 -2.29916 -8.69982 -47.9838 6.61856 28.3632 14.2267 154.74 0 0 0 -23.9266 36.3173 -99.738 1.36756e-05 55.0176 9.04695e-06 0 0 0 98.4783 -24.1855 -111.761 3.36769 -13.6975 -1.16644 0 3.41509e-06 0 24.0881 -2.78962 10.7661 -11.3542 8.44093 -27.6914 0 0 0 13.3557 6.83995 -28.75 0.434284 -4.30875 16.4351 0 0 0 
0.255522 0.449601 -2.31408 -6.5203 -47.5165 4.48788 27.36 13.6699 154.345 0 0 0 -10.831 38.6004 -93.4578 -2.1667e-05 70.5929 -1.95233e-05 0 0 0 95.5069 -24.1836 -110.291 -0.844528 -19.2707 -0.804687 0 0 0 21.8232 -2.66765 8.98182 -7.54275 7.16441 -22.6166 0 0 0 13.905 8.30234 -29.7186 -1.19299 -4.17306 15.5986 0 0 1.70755e-06 
0.255522 0.45891 -2.32369 -6.43434 -46.7145 4.42653 27.0523 13.6041 153.562 0 0 0 -13.37 39.6154 -93.3735 -2.40922e-06 68.5245 -1.64113e-06 0 0 0 95.1898 -24.5171 -109.534 -0.663499 -19.2434 -0.900041 0 0 0 21.4107 -1.79202 5.89025 -5.22192 5.22232 -15.9896 -4.26887e-07 2.38542e-15 6.4033e-07 17.2035 10.3618 -28.4862 -3.73845 -4.26609 14.5406 0 0 0 
0.255522 0.470059 -2.32462 -5.07785 -50.9341 2.41352 27.51 15.0646 156.394 8.53774e-07 -3.41509e-06 3.84198e-06 -15.4523 37.3026 -93.9026 -2.04129e-05 66.1593 -1.94103e-05 0 -4.26887e-07 0 97.4835 -26.2607 -112.33 0.156058 -18.6971 -0.492445 0 0 0 18.9653 -1.07246 3.63113 -2.55262 2.13307 -7.2286 0 0 0 19.9927 10.9741 -27.3537 -3.19539 -5.63536 16.4501 0 0 1.28066e-06 
0.26355 0.470059 -2.32607 -5.17931 -49.9073 2.79274 27.4274 14.0114 155.165 0 0 0 -18.2484 36.011 -94.8527 -1.14515e-06 61.8273 -1.06371e-05 0 0 0 97.3033 -27.1349 -112.578 -1.3243 -18.115 0.0876641 0 0 0 19.363 0.233671 -0.248608 -3.94831 -0.268437 1.00291 0 0 0 20.3372 11.2644 -28.2608 -2.54823 -6.87872 19.1774 0 0 0 
0.263663 0.470059 -2.32607 -5.2109 -49.3415 2.76028 27.3538 13.7378 154.616 0 0 0 -19.3759 35.6333 -94.5527 -1.43579e-05 59.1839 -1.40448e-05 0 0 0 97.4743 -28.4863 -112.444 -0.762767 -18.5269 0.231522 0 0 0 20.1035 2.93816 -4.87678 -8.26349 -2.99655 15.3104 2.13443e-07 0 0 20.6049 11.053 -28.7656 -0.379618 -8.18593 20.2163 0 0 0 
0.265822 0.459704 -2.32607 -5.29409 -49.9036 2.81389 27.0209 15.4508 154.228 0 0 0 -23.5075 38.7034 -101.483 -4.4087e-06 54.6224 -9.0028e-06 0 0 0 95.8795 -29.7503 -110.545 -1.26435 -18.4395 0.446226 0 0 0 20.0739 4.08649 -6.06591 -9.07772 -4.51356 18.4937 0 0 0 21.3636 12.8956 -27.1897 -0.895578 -10.2563 20.9398 0 0 0 
0.268204 0.455862 -2.31494 -4.21908 -49.4792 1.10361 26.7968 13.7588 154.621 0 0 0 -21.6556 38.3878 -100.909 1.09769e-06 53.4578 -4.22682e-06 0 0 0 97.7769 -31.0547 -112.38 0.231323 -17.6052 0.42919 0 0 0 18.5935 3.09507 -4.84774 -8.47454 -3.44214 18.5168 0 0 0 22.0979 10.7721 -24.8312 -0.806847 -9.12754 20.5376 0 0 0 
0.277705 0.452599 -2.2998 -8.43992 -48.1859 4.92265 27.2122 15.5631 152.765 0 0 0 -22.0281 41.4032 -101.209 4.92687e-06 52.9196 -2.31624e-06 0 0 0 100.325 -32.1849 -111.258 1.27728 -12.2101 0.51475 0 0 0 21.4251 3.81332 -6.28512 -9.20167 -3.2914 20.0815 0 0 -8.53774e-07 25.1971 10.4373 -23.966 -1.11012 -8.2891 19.1342 0 0 0 
0.277705 0.452599 -2.29329 -7.36545 -48.0482 3.49199 26.5425 15.2753 152.96 0 0 0 -22.927 41.6347 -101.648 -3.79461e-06 50.7891 -9.36211e-06 0 0 0 97.3169 -30.7088 -109.64 -4.06812 -15.6744 1.42118 0 0 0 20.4865 4.95673 -6.10446 -13.5918 -1.52253 18.9442 6.4033e-07 0 0 25.215 9.32616 -20.1762 -2.25988 -6.12113 14.6401 0 0 0 
0.280707 0.451722 -2.27786 -7.73952 -47.5368 3.30637 26.7031 14.2277 152.955 0 0 0 -20.2688 41.1592 -99.0056 -3.19036e-06 53.2037 -5.41716e-06 0 0 0 97.7258 -30.208 -110.258 -6.01575 -14.7028 1.72687 0 0 0 20.1452 4.6837 -5.31078 -13.4879 -1.68943 18.8977 0 0 0 24.8936 8.5052 -18.2745 -1.36332 -5.42861 12.2628 0 0 0 
0.280707 0.451722 -2.26978 -8.26067 -47.7283 3.99932 26.8885 14.4745 152.615 0 0 0 -20.9689 40.9839 -97.1075 6.57365e-06 52.0352 -3.44168e-06 0 0 0 96.9016 -29.5068 -109.95 -6.21748 -14.6483 1.51893 0 0 0 20.6632 5.25194 -5.55598 -14.6347 -1.39584 19.5748 0 0 0 25.1369 8.3546 -18.1772 -0.728779 -5.47721 12.0615 0 0 0 
0.280707 0.451959 -2.23818 -6.2733 -48.3778 1.31893 25.8292 13.6978 154.148 0 0 0 -18.6054 41.2888 -95.7689 -1.2799e-05 54.038 -1.32354e-05 0 0 0 97.958 -30.3409 -111.22 -5.54938 -14.1688 1.63602 0 0 0 16.3554 2.44552 -1.19571 -11.5377 -1.27363 16.8502 0 0 -8.53774e-07 20.5408 5.0445 -13.7427 2.74252 -3.46502 7.79321 0 0 0 
0.295373 0.451959 -2.21426 -2.94911 -48.076 3.41898 22.8808 13.9434 150.147 0 0 0 -17.8951 39.6519 -91.3876 3.51085e-07 53.3262 -2.68981e-06 0 0 0 97.9552 -30.9504 -112.451 -4.36386 -14.8439 1.65299 0 0 0 14.4541 3.76072 -5.71963 -10.7382 -1.8427 18.8993 9.93923e-17 -5.33608e-08 -2.13443e-07 19.6542 8.09641 -19.0704 -1.24125 -4.23347 10.458 -4.26887e-07 -1.06722e-07 4.26887e-07 
0.299406 0.451722 -2.21114 -2.70201 -47.1161 4.45389 23.4492 11.7602 148.605 0 0 0 -16.3841 41.0043 -97.7911 -5.79618e-06 55.8781 -5.00681e-06 0 0 0 95.1201 -28.1959 -112.857 -8.16714 -16.2556 1.79099 0 0 0 12.5161 3.13403 -6.32339 -8.56289 -1.88411 18.1639 0 0 0 18.434 7.71487 -19.4798 -0.555744 -3.17299 8.07175 0 0 0 
0.299615 0.444843 -2.18107 -0.493027 -55.1057 1.52351 24.7664 14.2327 153.501 0 0 0 -12.3901 37.8261 -93.5567 3.01498e-06 59.3853 2.70203e-06 0 0 0 99.4104 -28.5398 -119.159 -5.70835 -13.7437 1.3137 0 0 -3.4151e-06 3.41478 0.27155 -3.60275 -0.659188 -0.612097 13.1169 0 -3.41509e-06 0 17.0977 4.30808 -13.693 -0.623012 -2.04404 6.72796 0 0 0 
0.300398 0.439126 -2.16037 -0.0555345 -56.1017 1.20401 25.9687 11.846 154.129 0 0 0 -6.55973 36.638 -92.2808 -7.52948e-07 65.601 -3.5324e-06 0 0 0 98.7555 -28.5433 -122.041 -8.31864 -16.4171 2.13122 0 0 0 -0.333823 -0.618947 -2.4612 4.76508 -1.04557 12.9372 0 -3.41509e-06 0 15.2408 2.99825 -10.9354 1.11782 -1.20779 4.01064 0 0 0 
0.310425 0.430516 -2.14393 -0.188607 -60.5975 3.88941 26.7311 14.526 153.892 0 0 0 -2.13053 36.2753 -92.5713 -4.30427e-05 71.2374 -4.02892e-05 0 0 0 97.2364 -28.0661 -123.714 -8.07226 -20.3448 2.00802 0 0 0 -3.57039 -2.06415 -7.43153 8.76601 -1.4912 16.6977 0 0 0 14.3953 3.10484 -12.5589 2.50495 -1.39277 4.55064 0 0 0 
0.313959 0.430516 -2.1234 -1.88486 -60.8372 6.88661 27.1261 14.7924 152.601 0 0 0 0.20958 36.7979 -94.1181 -4.92386e-05 75.4074 -4.34566e-05 0 0 0 97.0544 -28.4953 -124.318 -7.12455 -20.6154 1.82249 0 0 0 -3.13675 -1.96018 -9.0117 9.56489 -2.7415 17.1791 0 0 0 14.406 4.25341 -13.7459 2.13072 -0.175878 0.492128 0 0 0 
0.313959 0.421766 -2.11675 -2.65856 -60.8053 7.66001 28.5446 12.9176 152.469 0 0 0 0.689592 32.9563 -91.4675 -3.46979e-05 75.5564 -3.01338e-05 -3.41509e-06 0 0 97.6391 -26.7448 -126.57 -7.92289 -20.2172 1.45853 0 -1.70755e-06 0 -3.9219 -8.59832 -12.0152 13.926 -8.74527 37.1031 0 0 0 15.8255 4.31862 -12.8996 -0.0918586 0.137875 -0.409773 0 0 0 
0.313959 0.421766 -2.10627 -28.4565 -58.4459 30.1604 36.7782 19.9159 151.896 0 0 0 3.12511 40.3221 -91.3876 -5.62082e-06 79.9441 -4.71176e-06 0 0 0 98.9036 -28.6935 -122.14 -1.05691 -14.4719 0.339117 0 0 0 10.377 -4.9289 -10.7596 11.3589 -11.5799 32.5402 0 0 0 31.1401 6.23217 -10.9107 -2.06093 0.369112 -0.701464 0 0 0 
0.312717 0.423613 -2.10114 -32.1156 -59.7935 33.3724 37.0807 23.2647 152.632 0 0 0 13.3385 49.5082 -91.5923 -180 89.2142 -180 0 0 0 99.6435 -25.8378 -120.957 -1.27045 -11.7963 -0.0889728 0 0 0 12.0778 -3.66408 -10.4361 9.40394 -12.4386 32.4516 0 0 0 33.2602 6.26359 -9.32621 -2.88546 0.171633 -0.287249 0 0 0 
